<svg width="5" height="8" viewBox="0 0 5 8" fill="none" xmlns="http://www.w3.org/2000/svg">
<path d="M0.999903 7.24997C0.883077 7.2502 0.769859 7.20951 0.679903 7.13497C0.629274 7.093 0.587423 7.04145 0.556747 6.98327C0.526071 6.9251 0.507173 6.86145 0.501135 6.79596C0.495097 6.73047 0.502038 6.66443 0.52156 6.60163C0.541083 6.53883 0.572802 6.4805 0.614903 6.42997L2.8549 3.74997L0.694904 1.06497C0.653371 1.01383 0.622355 0.954978 0.603639 0.891809C0.584923 0.828639 0.578876 0.762393 0.585846 0.696879C0.592815 0.631365 0.612664 0.567874 0.644251 0.510056C0.675838 0.452237 0.71854 0.401232 0.769903 0.35997C0.821636 0.314452 0.882219 0.280118 0.94785 0.259124C1.01348 0.238129 1.08274 0.230927 1.15129 0.23797C1.21984 0.245012 1.28619 0.266147 1.34618 0.300048C1.40617 0.333949 1.45851 0.379884 1.4999 0.43497L3.9149 3.43497C3.98844 3.52444 4.02865 3.63666 4.02865 3.75247C4.02865 3.86828 3.98844 3.9805 3.9149 4.06997L1.4149 7.06997C1.36474 7.13048 1.30103 7.17831 1.22892 7.20959C1.15682 7.24086 1.07836 7.2547 0.999903 7.24997Z" fill="#A7A8AB"/>
</svg>
