<svg width="15" height="15" viewBox="0 0 15 15" fill="none" xmlns="http://www.w3.org/2000/svg">
<path d="M14.1667 6.66667C13.9457 6.66667 13.7337 6.75446 13.5774 6.91074C13.4211 7.06702 13.3333 7.27899 13.3333 7.5V12.5C13.3333 12.721 13.2455 12.933 13.0893 13.0893C12.933 13.2455 12.721 13.3333 12.5 13.3333H2.5C2.27899 13.3333 2.06702 13.2455 1.91074 13.0893C1.75446 12.933 1.66667 12.721 1.66667 12.5V2.5C1.66667 2.27899 1.75446 2.06702 1.91074 1.91074C2.06702 1.75446 2.27899 1.66667 2.5 1.66667H7.5C7.72101 1.66667 7.93297 1.57887 8.08926 1.42259C8.24554 1.26631 8.33333 1.05435 8.33333 0.833333C8.33333 0.61232 8.24554 0.400358 8.08926 0.244078C7.93297 0.0877973 7.72101 0 7.5 0H2.5C1.83696 0 1.20107 0.263392 0.732233 0.732233C0.263392 1.20107 0 1.83696 0 2.5V12.5C0 13.163 0.263392 13.7989 0.732233 14.2678C1.20107 14.7366 1.83696 15 2.5 15H12.5C13.163 15 13.7989 14.7366 14.2678 14.2678C14.7366 13.7989 15 13.163 15 12.5V7.5C15 7.27899 14.9122 7.06702 14.7559 6.91074C14.5996 6.75446 14.3877 6.66667 14.1667 6.66667Z" fill="#0061D9"/>
<path d="M10.8334 1.66667H12.15L6.90836 6.9C6.83026 6.97747 6.76826 7.06964 6.72595 7.17119C6.68365 7.27274 6.66187 7.38166 6.66187 7.49167C6.66187 7.60168 6.68365 7.7106 6.72595 7.81215C6.76826 7.9137 6.83026 8.00586 6.90836 8.08333C6.98583 8.16144 7.078 8.22344 7.17955 8.26574C7.2811 8.30805 7.39002 8.32983 7.50003 8.32983C7.61004 8.32983 7.71896 8.30805 7.82051 8.26574C7.92206 8.22344 8.01423 8.16144 8.0917 8.08333L13.3334 2.85V4.16667C13.3334 4.38768 13.4212 4.59964 13.5774 4.75592C13.7337 4.9122 13.9457 5 14.1667 5C14.3877 5 14.5997 4.9122 14.756 4.75592C14.9122 4.59964 15 4.38768 15 4.16667V0.833333C15 0.61232 14.9122 0.400358 14.756 0.244078C14.5997 0.0877973 14.3877 0 14.1667 0H10.8334C10.6123 0 10.4004 0.0877973 10.2441 0.244078C10.0878 0.400358 10 0.61232 10 0.833333C10 1.05435 10.0878 1.26631 10.2441 1.42259C10.4004 1.57887 10.6123 1.66667 10.8334 1.66667Z" fill="#0061D9"/>
</svg>
